PathFileType	4	(X/Y/Z)	C:/Users/beibeiliu/ov580/test_trc/User3\sequence.41_training_dense_right.trc
DataRate	CameraRate	NumFrames	NumMarkers	Units	OrigDataRate	OrigDataStartFrame	OrigNumFrames
120	120	22	19	mm	120	1	301
Frame#	Time	ThumbCMC			ThumbMCP			ThumbIP			ThumbTip			IndexMCP			IndexPIP			IndexTip			MiddleMCP			MiddlePIP			MiddleTip			RingMCP			RingPIP			RingTip			PinkyMCP			PinkyPIP			PinkyTip			BackHand1			BackHand2			BackHand3	
		X0	Y0	Z0	X1	Y1	Z1	X2	Y2	Z2	X3	Y3	Z3	X4	Y4	Z4	X5	Y5	Z5	X6	Y6	Z6	X7	Y7	Z7	X8	Y8	Z8	X9	Y9	Z9	X10	Y10	Z10	X11	Y11	Z11	X12	Y12	Z12	X13	Y13	Z13	X14	Y14	Z14	X15	Y15	Z15	X16	Y16	Z16	X17	Y17	Z17	X18	Y18	Z18	
0	0	130.429	-6.5635	45.7833	107.039	-10.9061	22.1606	89.5234	-11.1479	-4.06657	75.4203	-16.8692	-19.0672	139.651	-29.5564	-27.1497	113.543	-30.9903	-45.8041	89.4504	-33.6079	-47.4389	149.369	-48.4921	-29.1436	130.961	-54.3075	-54.1966	98.2598	-60.0395	-65.7684	150.368	-65.47	-15.778	133.697	-72.8934	-43.7769	103.674	-77.9432	-52.5557	144.915	-87.4689	1.29979	128.84	-93.2668	-21.5207	108.205	-93.4566	-32.5535	169.312	-58.134	36.0607	171.946	-56.3294	60.1163	167.605	-25.377	42.5407	
1	0.00833333	130.343	-7.11981	48.6735	106.272	-7.6231	23.993	90.4633	-12.343	1.35168	73.5845	-15.8787	-16.0438	141	-29.1624	-25.8361	119.295	-31.6441	-46.1006	92.252	-34.4251	-49.4646	148.753	-46.865	-26.6284	127.558	-51.9712	-55.5532	96.4906	-58.3475	-64.9027	149.8	-68.8676	-18.5989	132.192	-70.854	-42.9827	106.459	-77.5158	-50.7506	144.472	-84.4601	-2.47009	131.833	-95.2635	-18.5819	105.488	-94.9633	-34.3337	167.667	-60.3687	32.1263	172.101	-55.3039	62.7692	166.124	-24.5597	44.2583	
2	0.0166667	129.342	-7.06013	47.5057	106.566	-9.22966	23.6904	86.1362	-7.6351	3.01017	75.1423	-18.1981	-15.3843	141.612	-23.0096	-22.0924	118.41	-30.8618	-47.175	89.9625	-29.7964	-52.8649	147.43	-48.1904	-29.7064	126.329	-51.2154	-53.8246	92.3627	-54.2262	-63.8668	148.207	-62.2748	-19.7124	133.316	-70.677	-39.365	103.112	-76.4441	-49.2412	145.265	-84.6494	-0.693888	130.341	-93.3349	-20.077	106.528	-92.3059	-32.6501	167.807	-60.0435	32.7602	169.963	-54.1689	62.9793	165.437	-25.3534	41.6554	
3	0.025	129.596	-4.11665	52.4252	105.918	-6.53583	26.6358	86.7969	-7.60611	0.996679	75.0616	-16.7502	-15.7881	142.088	-25.1645	-22.6228	123.723	-25.3571	-46.7819	96.073	-33.2012	-54.3121	145.934	-44.5232	-30.1562	125.04	-47.2123	-53.4611	90.3531	-54.2012	-61.6973	147.073	-63.748	-17.5419	132.107	-68.9805	-39.0154	101.282	-73.6533	-48.399	145.025	-79.5843	-0.449761	132.206	-89.6772	-19.5499	111.255	-90.571	-32.5525	165.658	-56.7348	32.7145	171.394	-56.2078	61.6436	166.742	-23.4753	44.209	
4	0.0333333	129.73	-3.04016	50.0605	105.921	-2.32162	28.984	88.6305	-7.17211	-0.0107924	74.5092	-14.8278	-17.0108	143.307	-22.2087	-20.9347	121.157	-26.4033	-47.9821	96.1096	-34.484	-54.5899	147.36	-47.7074	-27.0128	124.19	-50.8525	-52.2683	91.6781	-55.6092	-58.3551	147.705	-61.8238	-18.7729	129.083	-70.3985	-40.7937	100.298	-71.7907	-47.291	145.453	-78.961	1.6365	134.465	-88.16	-17.6389	108.153	-90.8639	-33.357	167.497	-53.2381	32.9718	169.64	-54.1067	65.1437	165.399	-19.8588	41.1423	
5	0.0416667	130.215	-1.73044	48.9993	107.62	-2.8953	28.3355	90.3083	-5.08658	1.01935	77.1244	-14.9561	-17.8853	142.459	-25.2966	-23.3409	124.002	-26.3065	-46.3835	97.0316	-35.6205	-53.2983	148.197	-42.4848	-23.8126	123.4	-48.6935	-50.974	92.5635	-52.6438	-58.0022	147.979	-61.0339	-12.8873	128.843	-67.9835	-40.2952	99.3073	-72.7645	-47.2551	145.543	-80.4873	5.28465	132.503	-88.8879	-20.5126	108.108	-91.2109	-31.3507	167.134	-53.2503	37.1566	172.088	-56.0726	66.1147	166.211	-24.2452	46.2761	
6	0.05	130.379	-3.36867	47.6858	109.636	-5.34561	27.4216	92.8855	-5.91026	4.48839	80.2388	-14.2531	-15.9886	142.065	-23.7968	-22.6029	122.341	-33.2266	-45.5843	93.0531	-33.0775	-54.7991	148.514	-46.6331	-23.6084	127.107	-52.6233	-49.1093	93.9826	-54.1432	-56.774	148.182	-61.9426	-16.2391	132.407	-72.8044	-37.8424	103.808	-72.945	-45.5848	146.317	-83.4621	2.3427	135.713	-88.9369	-17.3841	108.084	-95.0019	-32.3099	167.235	-58.5416	35.3111	170.775	-54.113	63.3792	166.222	-24.9581	42.2541	
7	0.0583333	131.233	-6.17463	48.1739	109.792	-2.38017	26.1682	92.9791	-4.0623	-1.50265	80.3102	-13.9511	-19.2868	142.567	-27.5651	-22.8153	120.957	-31.5631	-46.9582	94.4415	-40.9718	-51.2546	148.793	-46.3346	-25.2827	126.905	-53.1674	-48.8788	92.3492	-58.1261	-55.7468	149.764	-67.6495	-15.5268	132.674	-75.8206	-37.0187	104.291	-78.7969	-44.8294	147.026	-81.6913	5.10248	133.527	-94.0446	-17.3407	108.275	-96.169	-31.0403	168.97	-55.1067	37.7377	170.853	-51.6292	65.5573	165.797	-23.2866	42.3717	
8	0.0666667	133.06	-5.37339	46.962	112.192	-7.21954	22.0835	95.8591	-7.69953	-2.76549	85.1148	-20.6148	-24.2332	144.1	-31.5651	-22.2207	121.938	-35.8372	-43.3579	88.7944	-43.3857	-46.1104	148.804	-52.5646	-23.5353	125.368	-58.4824	-48.6501	95.0516	-60.6469	-55.0727	149.812	-66.9746	-15.5706	130.941	-79.6095	-36.1453	100.37	-81.9246	-43.8366	148.848	-87.9967	6.60283	134.495	-93.0893	-17.2141	113.533	-98.4808	-27.2483	169.495	-61.381	34.7212	172.419	-55.2644	67.1176	168.762	-22.0492	44.5708	
9	0.075	132.109	-6.93964	49.4276	111.986	-8.40814	24.3685	98.7023	-15.2863	-1.55488	85.696	-23.8839	-20.7121	141.552	-33.8487	-24.4836	119.398	-39.7682	-41.803	89.7395	-40.7115	-41.7856	148.315	-54.0841	-27.0438	128.239	-63.2441	-46.4192	92.0315	-66.1906	-53.5891	151.049	-71.0059	-14.0343	131.646	-81.444	-36.4181	104.464	-82.7198	-42.9822	150.09	-89.4955	2.18245	134.628	-94.1937	-17.7816	111.658	-99.9087	-27.7443	169.349	-59.5621	36.2913	172.873	-56.4906	64.0272	166.871	-25.1196	43.0607	
10	0.0833333	132.599	-9.62392	47.9955	109.484	-7.27595	21.2879	96.394	-16.2	-6.48238	87.151	-31.318	-18.8581	139.454	-33.6648	-23.4557	111.83	-44.2547	-41.0414	83.5909	-46.6305	-36.9797	148.236	-52.7905	-25.3311	125.469	-60.3412	-48.6596	89.507	-67.5931	-53	151.62	-68.425	-12.8518	130.975	-83.5351	-37.8012	102.466	-85.9957	-42.2438	149.948	-85.5215	1.38526	135.922	-97.194	-15.4769	111.32	-99.2885	-26.2208	171.055	-61.8817	35.3009	174.505	-55.1479	67.5381	166.847	-23.85	41.5639	
11	0.0916667	131.757	-6.69182	49.9189	110.308	-8.21811	22.6606	94.9315	-15.5509	-3.00252	83.7715	-28.9709	-20.7383	138.058	-35.7512	-21.5661	110.676	-41.2707	-39.9635	84.0602	-47.1042	-34.8514	147.888	-53.7908	-23.4669	123.594	-61.2402	-48.1566	88.9953	-71.6237	-52.3316	150.133	-74.5291	-15.198	130.895	-82.9097	-37.2961	103.874	-86.4042	-43.1207	148.698	-85.6976	1.92483	134.711	-96.5704	-15.9128	108.878	-98.9963	-24.9243	170.58	-61.4075	34.9808	173.03	-54.3303	68.4179	167.435	-25.378	43.0259	
12	0.1	131.156	-8.88435	48.3045	108.286	-4.77856	20.4149	93.3354	-11.7841	-4.7363	84.3532	-26.9401	-17.733	136.96	-30.6024	-21.7725	111.399	-36.6554	-39.7866	78.9279	-42.5707	-33.6852	145.936	-51.2411	-26.5965	125.338	-59.9451	-48.4603	92.4064	-66.3481	-55.3974	148.098	-70.6327	-17.2932	129.286	-77.0041	-38.0406	98.4603	-84.6698	-44.3981	146.965	-83.099	6.56094	130.548	-92.5145	-16.7693	105.679	-99.9201	-24.1434	170.667	-59.1674	36.6277	173.469	-55.3189	66.3201	163.729	-21.2605	44.5639	
13	0.108333	131.051	-4.98141	52.8452	108.341	-4.60105	25.8483	90.1702	-7.31249	-3.73761	80.2271	-21.2022	-20.9235	137.044	-24.4067	-21.4857	110.222	-28.4339	-41.9497	77.5027	-34.7302	-35.9459	145.632	-44.6659	-25.5374	126.153	-53.8499	-49.0096	88.3708	-61.5423	-58.0597	147.33	-68.2304	-17.0215	130.284	-71.8263	-37.5568	98.2193	-78.7121	-44.7523	144.076	-83.8646	0.737765	126.19	-90.4195	-18.0259	104.004	-94.56	-25.5694	166.301	-52.5226	36.9152	170.904	-50.8369	63.184	163.056	-20.8789	42.2669	
14	0.116667	128.459	-0.563613	49.3701	104.439	3.64094	25.3988	87.6594	0.0539957	-0.359433	75.49	-13.5158	-17.9915	136.515	-22.0319	-24.5214	109.723	-23.6495	-44.6418	82.9027	-27.2987	-41.5574	146.208	-40.0486	-24.6447	124.512	-44.5665	-50.3613	85.6741	-50.1436	-57.0093	145.753	-60.0227	-15.7777	124.284	-66.4916	-40.1674	93.9883	-69.148	-44.6549	143.207	-75.5943	3.47088	127.587	-87.19	-16.2167	102.188	-86.2002	-26.8376	164.723	-49.9548	36.0028	170.891	-47.8985	65.1303	164.855	-16.8599	40.8567	
15	0.125	128.097	5.04235	51.7269	104.027	5.30253	25.4951	85.303	3.36853	0.581749	74.4568	-8.91191	-14.3249	138.386	-14.4719	-21.0994	113.312	-15.9816	-44.5469	84.4433	-18.1007	-44.0927	142.46	-31.8444	-27.5616	118.62	-35.2228	-49.4703	85.1128	-41.8419	-49.0629	143.193	-52.6797	-17.4716	122.354	-58.8518	-39.2079	89.1312	-57.9578	-40.9296	141.785	-73.879	1.75186	123.802	-78.7147	-22.2304	100.727	-80.9492	-28.9603	165.271	-49.6619	32.4044	166.961	-45.0286	65.0391	163.526	-14.7423	44.5182	
16	0.133333	127.273	8.42207	55.4027	102.839	10.1398	32.1547	83.6838	11.1447	7.67107	72.7681	-5.34936	-13.0501	137.953	-3.92172	-20.05	115.016	-1.9167	-42.964	88.1673	-8.71071	-45.5427	138.824	-27.3895	-26.8876	114.947	-25.5778	-44.9678	74.9703	-28.9105	-36.7766	140.15	-45.7925	-19.0403	116.21	-47.2616	-37.8342	84.1837	-48.3645	-33.7912	140.571	-66.6207	-0.0377868	125.201	-67.562	-22.5221	100.966	-66.4383	-30.9135	161.971	-42.947	35.9052	166.411	-42.4125	64.7551	164.324	-8.73846	49.4437	
17	0.141667	127.814	14.4755	57.9539	101.193	19.665	37.7671	84.3788	15.907	10.7001	70.6063	6.56192	-7.19491	135.824	4.65672	-18.8805	115.065	5.19	-38.127	83.3815	4.6802	-41.221	131.71	-18.3682	-25.3872	104.568	-17.6717	-39.1833	68.7934	-17.6379	-22.6309	135.925	-33.2771	-15.7038	112.152	-38.4137	-35.4769	81.8357	-37.351	-29.116	137.533	-55.8884	1.16127	123.93	-56.4945	-23.9034	98.5456	-53.1322	-31.8026	160.414	-37.2276	31.8148	166.418	-37.9652	66.714	163.482	-6.06249	51.6249	
18	0.15	126.755	21.9397	63.712	101.129	24.1428	38.9172	82.07	24.1566	14.4286	68.0485	14.2388	-4.17069	132.205	17.2438	-15.7036	110.539	16.1552	-34.4186	78.2176	17.259	-34.6399	129.061	-7.21034	-18.9453	97.6074	-2.84862	-34.1543	67.2506	-6.56055	-17.2676	131.911	-26.4922	-15.4505	104.527	-25.749	-34.6255	77.6402	-19.948	-24.9709	134.965	-44.2559	-0.282885	122.646	-48.5372	-23.191	95.1874	-41.0852	-34.1991	157.645	-29.3248	35.3719	163.36	-35.6086	66.2695	161.138	-1.59599	51.0047	
19	0.158333	125.269	29.1114	68.5219	99.3914	31.6432	43.8217	76.4819	36.6503	22.4132	65.371	24.2684	5.41915	126.707	25.3919	-12.7899	103.756	29.5526	-31.2422	73.1316	27.3472	-29.0415	123.795	5.61391	-19.5146	96.0278	6.32374	-32.3661	58.9599	6.38515	-10.6437	127.079	-14.4531	-15.8597	101.764	-15.3911	-32.9661	73.2284	-10.7285	-25.2407	129.345	-35.6059	0.129517	119.37	-35.5899	-21.4079	93.4357	-27.7977	-35.4503	152.647	-20.7134	34.3143	161.08	-29.1171	63.1884	156.174	4.61068	51.2535	
20	0.166667	122.872	34.832	71.3795	94.2696	44.9308	48.8819	74.1296	45.4547	26.7885	59.1601	35.0501	8.28831	125.939	34.1148	-5.31119	97.5936	42.6844	-26.5047	69.7401	42.773	-22.9278	123.032	16.4944	-13.8627	93.093	26.11	-29.3288	57.2889	22.8445	-11.6193	123.218	-6.03308	-10.5324	97.3355	1.53856	-30.5518	69.4887	4.78874	-24.6675	124.571	-25.313	0.0330822	110.709	-23.2467	-22.6437	86.6538	-17.5746	-33.8487	150.684	-13.5922	38.2737	154.284	-19.1097	63.5414	154.89	18.392	54.6417	
21	0.175	121.444	40.6046	72.182	92.0235	53.0153	55.9321	70.4849	55.1011	33.402	54.5613	43.5055	14.1094	122.124	47.2886	-5.20178	99.8014	53.7329	-21.1656	70.9795	57.0981	-20.1055	119.602	26.1048	-13.9348	92.7558	38.6553	-27.9462	58.239	37.7658	-15.482	118.937	6.48417	-10.3696	97.5953	9.57893	-27.7318	65.9675	19.4608	-21.2541	119.171	-15.1167	2.44266	105.257	-12.6252	-19.5006	83.9479	-3.6757	-31.6442	144.849	-5.73195	38.917	151.674	-14.0898	68.6749	153.25	19.8077	59.4009	
